<svg width="59" height="76" viewBox="0 0 59 76" fill="none" xmlns="http://www.w3.org/2000/svg">
<rect width="14" height="55" rx="2" fill="#5DD177"/>
<rect x="22" y="33" width="15" height="22" rx="2" fill="#5DD177"/>
<rect x="45" y="24" width="14" height="31" rx="2" fill="#5DD177"/>
<path d="M1.34558 70.2444V60.4417H4.02527C4.43087 60.4417 4.79545 60.4964 5.11902 60.6058C5.44714 60.7151 5.72514 60.8701 5.953 61.0706C6.18542 61.2666 6.36316 61.5036 6.48621 61.7816C6.60925 62.0595 6.67078 62.3649 6.67078 62.6976C6.67078 62.9801 6.63204 63.2444 6.55457 63.4905C6.47709 63.7366 6.36544 63.9622 6.2196 64.1673C6.07377 64.3678 5.89376 64.5433 5.67957 64.6937C5.46993 64.8395 5.23067 64.9557 4.96179 65.0423V65.0696C5.28992 65.1015 5.58842 65.1813 5.8573 65.3089C6.12618 65.4365 6.35632 65.6028 6.54773 65.8079C6.73914 66.013 6.88725 66.2545 6.99207 66.5325C7.09688 66.806 7.14929 67.1068 7.14929 67.4349C7.14929 67.8496 7.0741 68.2301 6.92371 68.5765C6.77332 68.9183 6.5614 69.2145 6.28796 69.4651C6.01908 69.7112 5.69779 69.9026 5.3241 70.0394C4.9504 70.1761 4.53796 70.2444 4.08679 70.2444H1.34558ZM2.25476 61.2757V64.7552H3.52625C3.85893 64.7552 4.15971 64.7119 4.42859 64.6253C4.69747 64.5387 4.92761 64.4134 5.11902 64.2493C5.31042 64.0853 5.45626 63.887 5.55652 63.6546C5.66134 63.4222 5.71375 63.1601 5.71375 62.8685C5.71375 61.8066 5.05294 61.2757 3.73132 61.2757H2.25476ZM2.25476 65.5755V69.4173H3.94324C4.66785 69.4173 5.22384 69.2487 5.61121 68.9114C6.00313 68.5696 6.1991 68.0866 6.1991 67.4622C6.1991 66.2044 5.3446 65.5755 3.63562 65.5755H2.25476ZM15.5165 70.2444L14.4364 67.346H10.2323L9.17957 70.2444H8.16785L11.9003 60.4417H12.8163L16.5282 70.2444H15.5165ZM12.5292 62.1575C12.4973 62.0709 12.4631 61.9707 12.4266 61.8568C12.3947 61.7428 12.3674 61.6129 12.3446 61.4671H12.3173C12.2899 61.6129 12.258 61.7428 12.2216 61.8568C12.1897 61.9707 12.1578 62.0709 12.1259 62.1575L10.5399 66.5189H14.1288L12.5292 62.1575ZM23.4188 70.2444L21.9423 67.4349C21.7964 67.1569 21.6552 66.9245 21.5184 66.7376C21.3817 66.5508 21.2404 66.4026 21.0946 66.2933C20.9488 66.1793 20.7915 66.0996 20.6229 66.054C20.4589 66.0039 20.2743 65.9788 20.0692 65.9788H18.9891V70.2444H18.08V60.4417H20.9032C21.2723 60.4417 21.6278 60.4964 21.9696 60.6058C22.316 60.7151 22.6236 60.8769 22.8925 61.0911C23.1613 61.3053 23.3755 61.5742 23.535 61.8978C23.6991 62.2213 23.7811 62.5973 23.7811 63.0257C23.7811 63.372 23.7287 63.6911 23.6239 63.9827C23.5191 64.2744 23.3687 64.5342 23.1727 64.762C22.9813 64.9853 22.7466 65.1767 22.4686 65.3362C22.1952 65.4912 21.8853 65.6074 21.5389 65.6849V65.7122C21.6711 65.7669 21.7919 65.8375 21.9012 65.9241C22.0106 66.0107 22.1154 66.1155 22.2157 66.2386C22.3205 66.3616 22.4231 66.5029 22.5233 66.6624C22.6236 66.8219 22.7284 67.0042 22.8378 67.2093L24.4852 70.2444H23.4188ZM18.9891 61.2757V65.1517H20.6161C20.9442 65.1517 21.245 65.1038 21.5184 65.0081C21.7919 64.9124 22.0243 64.7757 22.2157 64.598C22.4117 64.4202 22.5621 64.206 22.6669 63.9554C22.7762 63.7047 22.8309 63.4222 22.8309 63.1077C22.8309 62.5381 22.6464 62.0915 22.2772 61.7679C21.9126 61.4398 21.384 61.2757 20.6913 61.2757H18.9891Z" fill="#5DD177"/>
</svg>
