<svg width="162" height="155" viewBox="0 0 162 155" fill="none" xmlns="http://www.w3.org/2000/svg">
<path d="M28.3796 25.6746L10.0043 4.49997L127.004 3.49997L156.713 24.4096L157.006 149.618L31.4998 147.988L28.3796 25.6746Z" fill="white"/>
<path fill-rule="evenodd" clip-rule="evenodd" d="M131.319 0L162 22.5036L161.94 154.192H30.6793L0 131.69V0.0289717L131.319 0ZM9.10837 13.5704L27.6163 27.1455V140.65L9.10837 127.075V13.5704ZM36.7246 145.084H152.835L152.888 29.3656L36.7246 29.3912V145.084ZM33.6612 20.2835L143.54 20.2592L128.338 9.10903L18.4592 9.13327L33.6612 20.2835Z" fill="url(#paint0_linear)"/>
<path d="M32.1705 24.8381L4.5542 4.58217V129.382L32.1705 149.638V87.238V24.8381Z" fill="url(#paint1_linear)"/>
<path fill-rule="evenodd" clip-rule="evenodd" d="M131.319 0L162 22.5036L161.94 154.192H30.6793L0 131.69V0.0289717L131.319 0ZM36.7246 145.084H152.835L152.888 29.3656L36.7246 29.3912V145.084ZM27.6163 27.1455L9.10837 13.5704V127.075L27.6163 140.65V27.1455ZM18.4592 9.13327L33.6612 20.2835L143.54 20.2592L128.338 9.10903L18.4592 9.13327Z" fill="url(#paint2_linear)"/>
<path d="M50.7466 44.241H63.7586V137.927H50.7466V44.241Z" fill="#5DD177"/>
<path d="M50.7466 91.084H63.7586V137.927H50.7466V91.084Z" fill="#8BCED7"/>
<path d="M50.7466 119.06H63.7586V137.927H50.7466V119.06Z" fill="#72A8F8"/>
<path d="M74.8188 73.5179H87.8307V138.578H74.8188V73.5179Z" fill="#5DD177"/>
<path d="M74.8188 108.65H87.8307V138.578H74.8188V108.65Z" fill="#8BCED7"/>
<path d="M74.8188 128.819H87.8307V138.578H74.8188V128.819Z" fill="#72A8F8"/>
<path d="M98.8909 89.1323H111.903V138.578H98.8909V89.1323Z" fill="#5DD177"/>
<path d="M98.8909 100.843H111.903V138.578H98.8909V100.843Z" fill="#8BCED7"/>
<path d="M98.8909 114.506H111.903V138.578H98.8909V114.506Z" fill="#72A8F8"/>
<path d="M123.614 54H136.626V138.578H123.614V54Z" fill="#5DD177"/>
<path d="M123.614 84.5781H136.626V138.578H123.614V84.5781Z" fill="#8BCED7"/>
<path d="M123.614 128.819H136.626V138.578H123.614V128.819Z" fill="#72A8F8"/>
<defs>
<linearGradient id="paint0_linear" x1="81" y1="0" x2="81" y2="154.192" gradientUnits="userSpaceOnUse">
<stop stop-color="#72A8F8"/>
<stop offset="1" stop-color="#5DD177"/>
</linearGradient>
<linearGradient id="paint1_linear" x1="80.9995" y1="4.55453" x2="80.9995" y2="149.638" gradientUnits="userSpaceOnUse">
<stop stop-color="#72A8F8"/>
<stop offset="1" stop-color="#5DD177"/>
</linearGradient>
<linearGradient id="paint2_linear" x1="81" y1="0" x2="81" y2="154.192" gradientUnits="userSpaceOnUse">
<stop stop-color="#72A8F8"/>
<stop offset="1" stop-color="#5DD177"/>
</linearGradient>
</defs>
</svg>
