<svg width="176" height="27" viewBox="0 0 176 27" fill="none" xmlns="http://www.w3.org/2000/svg">
<path d="M0.233398 26V5.26221H3.23047L12.7212 20.2959H12.7534V5.32666H15.3477V26H12.415L2.85986 10.8535H2.81152V26H0.233398Z" fill="#72A8F8"/>
<path d="M27.6743 26.4028C25.1069 26.4028 23.0874 25.5918 21.6157 23.9697C20.1548 22.3369 19.4243 20.0972 19.4243 17.2505C19.4243 14.4146 20.1602 12.1855 21.6318 10.5635C23.1035 8.93066 25.1177 8.11426 27.6743 8.11426C30.2417 8.11426 32.2559 8.93066 33.7168 10.5635C35.1885 12.1855 35.9243 14.4146 35.9243 17.2505C35.9243 20.0972 35.1885 22.3369 33.7168 23.9697C32.2559 25.5918 30.2417 26.4028 27.6743 26.4028ZM27.6743 24.0181C29.1997 24.0181 30.3921 23.4219 31.2515 22.2295C32.1108 21.0371 32.5405 19.3774 32.5405 17.2505C32.5405 15.1343 32.1108 13.48 31.2515 12.2876C30.3921 11.0952 29.1997 10.499 27.6743 10.499C26.1489 10.499 24.9565 11.0952 24.0972 12.2876C23.2378 13.48 22.8081 15.1343 22.8081 17.2505C22.8081 19.3774 23.2378 21.0371 24.0972 22.2295C24.9565 23.4219 26.1489 24.0181 27.6743 24.0181Z" fill="#72A8F8"/>
<path d="M55.373 25.9839C53.7832 26.2632 52.2471 26.4028 50.7646 26.4028C48.1758 26.4028 46.4141 25.9409 45.4795 25.0171C44.5449 24.0825 44.0776 22.3208 44.0776 19.7319V11.2886H39.7109V8.90381H44.0776V5.1333H47.2681V8.90381H55.0186V11.2886H47.2681V20.2476C47.2681 21.2466 47.3271 21.9341 47.4453 22.3101C47.5742 22.686 47.8428 23.0137 48.251 23.293C48.9814 23.7764 50.0449 24.0181 51.4414 24.0181C52.7627 24.0181 54.0732 23.8677 55.373 23.5669V25.9839Z" fill="#72A8F8"/>
<path d="M66.6523 26V10.8857H60.2876V8.50098H69.8267V26H66.6523ZM66.2495 4.53711V0.557129H70.2295V4.53711H66.2495Z" fill="#72A8F8"/>
<path d="M87.3257 26.4028C84.7583 26.4028 82.7388 25.5918 81.2671 23.9697C79.8062 22.3369 79.0757 20.0972 79.0757 17.2505C79.0757 14.4146 79.8115 12.1855 81.2832 10.5635C82.7549 8.93066 84.769 8.11426 87.3257 8.11426C89.8931 8.11426 91.9072 8.93066 93.3682 10.5635C94.8398 12.1855 95.5757 14.4146 95.5757 17.2505C95.5757 20.0972 94.8398 22.3369 93.3682 23.9697C91.9072 25.5918 89.8931 26.4028 87.3257 26.4028ZM87.3257 24.0181C88.8511 24.0181 90.0435 23.4219 90.9028 22.2295C91.7622 21.0371 92.1919 19.3774 92.1919 17.2505C92.1919 15.1343 91.7622 13.48 90.9028 12.2876C90.0435 11.0952 88.8511 10.499 87.3257 10.499C85.8003 10.499 84.6079 11.0952 83.7485 12.2876C82.8892 13.48 82.4595 15.1343 82.4595 17.2505C82.4595 19.3774 82.8892 21.0371 83.7485 22.2295C84.6079 23.4219 85.8003 24.0181 87.3257 24.0181Z" fill="#72A8F8"/>
<path d="M100.2 26V8.50098H103.375V11.7881C104.835 9.33887 106.823 8.11426 109.336 8.11426C112.656 8.11426 114.315 10.0854 114.315 14.0278V26H111.141V14.8979C111.141 13.5337 110.926 12.5669 110.497 11.9976C110.078 11.4175 109.369 11.1274 108.37 11.1274C106.78 11.1274 105.115 12.2715 103.375 14.5596V26H100.2Z" fill="#72A8F8"/>
<path d="M125.924 26L117.9 5.32666H121.251L127.858 21.7622L134.609 5.32666H137.316L129.115 26H125.924Z" fill="#5DD177"/>
<path d="M146.71 26V10.8857H140.346V8.50098H149.885V26H146.71ZM146.308 4.53711V0.557129H150.288V4.53711H146.308Z" fill="#5DD177"/>
<path d="M159.633 26V23.6152L171.09 10.8857H160.036V8.50098H174.844V10.8857L163.372 23.6152H175.134V26H159.633Z" fill="#5DD177"/>
</svg>
